<svg width="20" height="20" viewBox="0 0 20 20" fill="none" xmlns="http://www.w3.org/2000/svg">
<path d="M2.5 8.33337V15.8334C2.5 16.2754 2.67559 16.6993 2.98816 17.0119C3.30072 17.3244 3.72464 17.5 4.16667 17.5H15.8333C16.2754 17.5 16.6993 17.3244 17.0118 17.0119C17.3244 16.6993 17.5 16.2754 17.5 15.8334V8.33337" stroke="#A1A5A9"/>
<path d="M12.3608 17.5V12.5C12.3608 12.058 12.1852 11.6341 11.8727 11.3215C11.5601 11.009 11.1362 10.8334 10.6942 10.8334H9.02751C8.58548 10.8334 8.16156 11.009 7.84899 11.3215C7.53643 11.6341 7.36084 12.058 7.36084 12.5V17.5" stroke="#A1A5A9" stroke-miterlimit="16"/>
<path d="M18.1817 7.80333L16.7701 2.8625C16.7402 2.75804 16.6771 2.66615 16.5904 2.60075C16.5036 2.53534 16.3979 2.49998 16.2892 2.5H12.9167L13.3126 7.25333C13.3186 7.32977 13.3427 7.40367 13.383 7.46889C13.4233 7.53411 13.4786 7.58878 13.5442 7.62833C13.8692 7.8225 14.5042 8.18083 15.0001 8.33333C15.8467 8.59417 17.0834 8.5 17.7884 8.41333C17.857 8.40447 17.9227 8.38076 17.9812 8.34386C18.0396 8.30696 18.0893 8.25775 18.1267 8.19966C18.1642 8.14158 18.1885 8.07603 18.198 8.00758C18.2075 7.93912 18.202 7.86942 18.1817 7.80333Z" stroke="#A1A5A9"/>
<path d="M11.6667 8.33333C12.1401 8.1875 12.7401 7.855 13.0751 7.65667C13.1532 7.61019 13.2165 7.54256 13.2578 7.46161C13.2991 7.38065 13.3166 7.28967 13.3084 7.19917L12.9167 2.5H7.08341L6.69175 7.19917C6.68336 7.2898 6.70082 7.38096 6.74212 7.46208C6.78342 7.5432 6.84685 7.61096 6.92508 7.6575C7.26008 7.855 7.86008 8.1875 8.33341 8.33333C9.57758 8.71667 10.4226 8.71667 11.6667 8.33333Z" stroke="#A1A5A9"/>
<path d="M3.23004 2.8625L1.81838 7.80417C1.79845 7.87015 1.79312 7.93968 1.80277 8.00793C1.81241 8.07618 1.83679 8.14151 1.87421 8.19939C1.91164 8.25727 1.96121 8.30632 2.01949 8.34312C2.07777 8.37992 2.14336 8.40359 2.21171 8.4125C2.91588 8.5 4.15338 8.59333 5.00004 8.33333C5.49588 8.18083 6.13171 7.8225 6.45588 7.62917C6.52166 7.58953 6.57701 7.53473 6.61731 7.46936C6.65761 7.40398 6.68169 7.32991 6.68754 7.25333L7.08338 2.5H3.71088C3.60223 2.49998 3.49653 2.53534 3.40977 2.60075C3.32301 2.66615 3.25992 2.75804 3.23004 2.8625Z" stroke="#A1A5A9"/>
</svg>
