<svg width="20" height="20" viewBox="0 0 20 20" fill="none" xmlns="http://www.w3.org/2000/svg"><path d="M16.0651 6.80502C16.0651 7.24524 15.9325 7.59264 15.6673 7.84723C15.4075 8.09651 15.0547 8.22115 14.6092 8.22115H6.32956C6.27652 8.22115 6.25 8.05143 6.25 7.71198C6.25 7.34602 6.27652 7.16303 6.32956 7.16303H14.6092C14.7418 7.16303 14.8479 7.12856 14.9275 7.05961C15.0123 6.98535 15.0547 6.88458 15.0547 6.75729V5.48436H16.0651V6.80502ZM16.2561 3.75V4.65696H14.0125V3.75H16.2561Z" fill="black"></path><path d="M6.90301 7.82844C6.90301 8.50335 6.72269 9.034 6.36206 9.4204C6.00657 9.8068 5.51713 10 4.89374 10H3.75V8.97218H4.95556C5.25953 8.97218 5.49652 8.89748 5.66654 8.74807C5.83655 8.60381 5.92156 8.40546 5.92156 8.15301H5.3806C4.82419 8.15301 4.42491 8.03709 4.18277 7.80525C3.94578 7.57342 3.82728 7.20505 3.82728 6.70015C3.82728 6.37043 3.89168 6.07676 4.02048 5.81916C4.14928 5.56157 4.3296 5.36064 4.56144 5.21638C4.79843 5.07213 5.07148 5 5.3806 5C5.85459 5 6.22553 5.15456 6.49343 5.46368C6.76649 5.7728 6.90301 6.20041 6.90301 6.74652V7.82844ZM4.801 6.66151C4.801 6.82638 4.8448 6.94745 4.93238 7.02473C5.02512 7.09686 5.1874 7.13292 5.41924 7.13292H5.92156V6.73107C5.92156 6.48377 5.87262 6.29572 5.77473 6.16692C5.67684 6.03812 5.53516 5.97372 5.34969 5.97372C5.17452 5.97372 5.038 6.03812 4.94011 6.16692C4.84737 6.29057 4.801 6.45544 4.801 6.66151Z" fill="black"></path><path d="M12.6472 15.2175C12.7958 15.2175 12.8992 15.189 12.9575 15.1321C13.0212 15.0751 13.053 14.982 13.053 14.8526V14.6352C13.053 14.1331 13.1988 13.7371 13.4906 13.4473C13.7876 13.1522 14.188 13.0047 14.6919 13.0047C15.1958 13.0047 15.5803 13.1471 15.8455 13.4317C16.116 13.7113 16.2512 14.115 16.2512 14.6429C16.2512 15.1502 16.1107 15.5461 15.8296 15.8308C15.5485 16.1103 15.156 16.2501 14.6521 16.2501C14.3869 16.2501 14.1668 16.219 13.9918 16.1569C13.8167 16.0896 13.6868 15.9964 13.6019 15.8774C13.5012 16.0068 13.3739 16.1025 13.2201 16.1647C13.0716 16.2216 12.8806 16.2501 12.6472 16.2501H12.4404C12.3874 16.2501 12.3608 16.0844 12.3608 15.7532C12.3608 15.396 12.3874 15.2175 12.4404 15.2175H12.6472ZM15.2488 14.6429C15.2488 14.2081 15.0499 13.9908 14.6521 13.9908C14.2543 13.9908 14.0554 14.2081 14.0554 14.6429C14.0554 14.8293 14.1032 14.9742 14.1986 15.0777C14.2994 15.1761 14.4506 15.2252 14.6521 15.2252C14.8537 15.2252 15.0022 15.1786 15.0976 15.0855C15.1984 14.9871 15.2488 14.8396 15.2488 14.6429Z" fill="black"></path><path d="M12.436 15.2174C12.4891 15.2174 12.5156 15.396 12.5156 15.7531C12.5156 15.9653 12.5076 16.1025 12.4917 16.1646C12.4758 16.2215 12.4572 16.25 12.436 16.25H11.2426C11.1896 16.25 11.1631 16.0844 11.1631 15.7531C11.1631 15.396 11.1896 15.2174 11.2426 15.2174H12.436Z" fill="black"></path><path d="M11.2401 15.2174C11.2666 15.2174 11.2852 15.251 11.2958 15.3183C11.3117 15.3856 11.3197 15.5305 11.3197 15.7531C11.3197 15.9601 11.3117 16.0947 11.2958 16.1568C11.2852 16.2189 11.2666 16.25 11.2401 16.25H10.9537C10.5082 16.25 10.1687 16.1258 9.93536 15.8773C9.7073 15.6237 9.59326 15.264 9.59326 14.7981V11.25H10.6116V14.7283C10.6116 14.8939 10.6434 15.0181 10.7071 15.1009C10.776 15.1786 10.8821 15.2174 11.0253 15.2174H11.2401Z" fill="black"></path><path d="M5.90602 16.2386C5.21652 16.2386 4.68348 16.0445 4.3069 15.6563C3.93563 15.2733 3.75 14.735 3.75 14.0414V12.4886H4.76038V14.0181C4.76038 14.4115 4.8532 14.7065 5.03884 14.9032C5.22447 15.1051 5.51353 15.206 5.90602 15.206H6.22425C6.60613 15.206 6.90579 15.1076 7.12325 14.911C7.34071 14.7143 7.44944 14.4425 7.44944 14.0957V11.7122H8.45982V14.0181C8.45982 14.4839 8.36701 14.8825 8.18137 15.2137C7.99574 15.5502 7.7332 15.8038 7.39375 15.9746C7.05961 16.1506 6.66977 16.2386 6.22425 16.2386H5.90602ZM5.38889 12.8897V12.0046H6.47088V12.8897H5.38889Z" fill="black"></path><rect x="0.5" y="0.5" width="19" height="19" rx="1.5" stroke="#C6C6C6"></rect></svg>